<?xml version="1.0" encoding="UTF-8" standalone="no"?>
<svg
   xmlns:dc="http://purl.org/dc/elements/1.1/"
   xmlns:cc="http://creativecommons.org/ns#"
   xmlns:rdf="http://www.w3.org/1999/02/22-rdf-syntax-ns#"
   xmlns:svg="http://www.w3.org/2000/svg"
   xmlns="http://www.w3.org/2000/svg"
   xmlns:sodipodi="http://sodipodi.sourceforge.net/DTD/sodipodi-0.dtd"
   xmlns:inkscape="http://www.inkscape.org/namespaces/inkscape"
   sodipodi:docname="speaker.svg"
   inkscape:version="1.0 (4035a4fb49, 2020-05-01)"
   id="svg8"
   version="1.1"
   viewBox="0 0 210 297"
   height="297mm"
   width="210mm">
  <defs
     id="defs2" />
  <sodipodi:namedview
     inkscape:window-maximized="1"
     inkscape:window-y="-8"
     inkscape:window-x="1592"
     inkscape:window-height="1377"
     inkscape:window-width="2560"
     showgrid="false"
     inkscape:document-rotation="0"
     inkscape:current-layer="layer1"
     inkscape:document-units="mm"
     inkscape:cy="128.45192"
     inkscape:cx="311.6028"
     inkscape:zoom="2.8"
     inkscape:pageshadow="2"
     inkscape:pageopacity="0.0"
     borderopacity="1.0"
     bordercolor="#666666"
     pagecolor="#ffffff"
     id="base" />
  <metadata
     id="metadata5">
    <rdf:RDF>
      <cc:Work
         rdf:about="">
        <dc:format>image/svg+xml</dc:format>
        <dc:type
           rdf:resource="http://purl.org/dc/dcmitype/StillImage" />
        <dc:title></dc:title>
      </cc:Work>
    </rdf:RDF>
  </metadata>
  <g
     id="layer1"
     inkscape:groupmode="layer"
     inkscape:label="Layer 1">
    <g
       style="stroke:#ffbc00;stroke-opacity:1;fill:#ffbc00;fill-opacity:1"
       id="g927">
      <path
         id="path2"
         style="stroke-width:0.0797925;stroke:#ffbc00;stroke-opacity:1;fill:#ffbc00;fill-opacity:1"
         d="m 47.586654,22.88871 c -5.43139,0 -9.834541,4.403148 -9.834541,9.834541 0,5.431311 4.403151,9.834025 9.834541,9.834025 5.431393,0 9.834025,-4.402714 9.834025,-9.834025 0,-5.431393 -4.402632,-9.834541 -9.834025,-9.834541 z m -4.653463,13.737661 h 9.321396 c -0.447395,1.479193 -2.36387,2.591057 -4.660697,2.591057 -2.296824,0 -4.213301,-1.111864 -4.660699,-2.591057 z m -3.545519,6.677113 c -4.719484,0.539636 -8.418089,4.569565 -8.418089,9.427331 v 3.241662 c 0,0.48051 0.353777,1.03922 0.792715,1.234551 1.701255,0.756909 6.341901,2.30632 15.824356,2.30632 9.482376,0 14.122588,-1.549411 15.823843,-2.30632 0.438938,-0.195331 0.792715,-0.753605 0.792715,-1.234033 v -3.24218 c 0,-4.857766 -3.698846,-8.887695 -8.418092,-9.427331 -0.143385,-0.01644 -0.355941,0.04505 -0.472839,0.129706 -2.176018,1.575343 -4.839772,2.515611 -7.725627,2.515611 -2.885773,0 -5.550122,-0.940268 -7.726143,-2.515611 -0.116895,-0.08466 -0.329451,-0.146148 -0.472839,-0.129706 z" />
      <path
         style="fill:#ffbc00;stroke:#ffbc00;stroke-width:0.264583px;stroke-linecap:butt;stroke-linejoin:miter;stroke-opacity:1;fill-opacity:1"
         d="M 58.728051,27.92299 66.311196,17.859375"
         id="path899"
         sodipodi:nodetypes="cc" />
      <text
         xml:space="preserve"
         style="font-size:7.7611px;line-height:1.25;font-family:sans-serif;stroke-width:0.264583;stroke:#ffbc00;stroke-opacity:1;fill:#ffbc00;fill-opacity:1"
         x="55.70042"
         y="16.844814"
         id="text903"><tspan
           sodipodi:role="line"
           id="tspan901"
           x="55.70042"
           y="16.844814"
           style="stroke-width:0.264583;stroke:#ffbc00;stroke-opacity:1;fill:#ffbc00;fill-opacity:1">AAAA</tspan></text>
      <path
         d="m 47.586654,22.88871 c -5.43139,0 -9.834541,4.403148 -9.834541,9.834541 0,5.431311 4.403151,9.834025 9.834541,9.834025 5.431393,0 9.834025,-4.402714 9.834025,-9.834025 0,-5.431393 -4.402632,-9.834541 -9.834025,-9.834541 z m -4.653463,13.737661 h 9.321396 c -0.447395,1.479193 -2.36387,2.591057 -4.660697,2.591057 -2.296824,0 -4.213301,-1.111864 -4.660699,-2.591057 z m -3.545519,6.677113 c -4.719484,0.539636 -8.418089,4.569565 -8.418089,9.427331 v 3.241662 c 0,0.48051 0.353777,1.03922 0.792715,1.234551 1.701255,0.756909 6.341901,2.30632 15.824356,2.30632 9.482376,0 14.122588,-1.549411 15.823843,-2.30632 0.438938,-0.195331 0.792715,-0.753605 0.792715,-1.234033 v -3.24218 c 0,-4.857766 -3.698846,-8.887695 -8.418092,-9.427331 -0.143385,-0.01644 -0.355941,0.04505 -0.472839,0.129706 -2.176018,1.575343 -4.839772,2.515611 -7.725627,2.515611 -2.885773,0 -5.550122,-0.940268 -7.726143,-2.515611 -0.116895,-0.08466 -0.329451,-0.146148 -0.472839,-0.129706 z"
         style="stroke-width:0.0797925;stroke:#ffbc00;stroke-opacity:1;fill:#ffbc00;fill-opacity:1"
         id="path905" />
      <path
         sodipodi:nodetypes="cc"
         id="path907"
         d="M 58.728051,27.92299 66.311196,17.859375"
         style="fill:#ffbc00;stroke:#ffbc00;stroke-width:0.264583px;stroke-linecap:butt;stroke-linejoin:miter;stroke-opacity:1;fill-opacity:1" />
      <text
         id="text911"
         y="16.844814"
         x="55.70042"
         style="font-size:7.7611px;line-height:1.25;font-family:sans-serif;stroke-width:0.264583;stroke:#ffbc00;stroke-opacity:1;fill:#ffbc00;fill-opacity:1"
         xml:space="preserve"><tspan
           style="stroke-width:0.264583;stroke:#ffbc00;stroke-opacity:1;fill:#ffbc00;fill-opacity:1"
           y="16.844814"
           x="55.70042"
           id="tspan909"
           sodipodi:role="line">AAAA</tspan></text>
    </g>
    <g
       style="fill:#ff2100;fill-opacity:1;stroke:#ff2100;stroke-opacity:1"
       transform="translate(47.625002)"
       id="g945">
      <path
         d="m 47.586654,22.88871 c -5.43139,0 -9.834541,4.403148 -9.834541,9.834541 0,5.431311 4.403151,9.834025 9.834541,9.834025 5.431393,0 9.834025,-4.402714 9.834025,-9.834025 0,-5.431393 -4.402632,-9.834541 -9.834025,-9.834541 z m -4.653463,13.737661 h 9.321396 c -0.447395,1.479193 -2.36387,2.591057 -4.660697,2.591057 -2.296824,0 -4.213301,-1.111864 -4.660699,-2.591057 z m -3.545519,6.677113 c -4.719484,0.539636 -8.418089,4.569565 -8.418089,9.427331 v 3.241662 c 0,0.48051 0.353777,1.03922 0.792715,1.234551 1.701255,0.756909 6.341901,2.30632 15.824356,2.30632 9.482376,0 14.122588,-1.549411 15.823843,-2.30632 0.438938,-0.195331 0.792715,-0.753605 0.792715,-1.234033 v -3.24218 c 0,-4.857766 -3.698846,-8.887695 -8.418092,-9.427331 -0.143385,-0.01644 -0.355941,0.04505 -0.472839,0.129706 -2.176018,1.575343 -4.839772,2.515611 -7.725627,2.515611 -2.885773,0 -5.550122,-0.940268 -7.726143,-2.515611 -0.116895,-0.08466 -0.329451,-0.146148 -0.472839,-0.129706 z"
         style="stroke-width:0.0797925;fill:#ff2100;fill-opacity:1;stroke:#ff2100;stroke-opacity:1"
         id="path929" />
      <path
         sodipodi:nodetypes="cc"
         id="path931"
         d="M 58.728051,27.92299 66.311196,17.859375"
         style="fill:#ff2100;stroke:#ff2100;stroke-width:0.264583px;stroke-linecap:butt;stroke-linejoin:miter;stroke-opacity:1;fill-opacity:1" />
      <text
         id="text935"
         y="16.844814"
         x="55.70042"
         style="font-size:7.7611px;line-height:1.25;font-family:sans-serif;fill:#ff2100;fill-opacity:1;stroke:#ff2100;stroke-width:0.264583;stroke-opacity:1"
         xml:space="preserve"><tspan
           style="fill:#ff2100;fill-opacity:1;stroke:#ff2100;stroke-width:0.264583;stroke-opacity:1"
           y="16.844814"
           x="55.70042"
           id="tspan933"
           sodipodi:role="line">ABAB</tspan></text>
      <path
         id="path937"
         style="stroke-width:0.0797925;fill:#ff2100;fill-opacity:1;stroke:#ff2100;stroke-opacity:1"
         d="m 47.586654,22.88871 c -5.43139,0 -9.834541,4.403148 -9.834541,9.834541 0,5.431311 4.403151,9.834025 9.834541,9.834025 5.431393,0 9.834025,-4.402714 9.834025,-9.834025 0,-5.431393 -4.402632,-9.834541 -9.834025,-9.834541 z m -4.653463,13.737661 h 9.321396 c -0.447395,1.479193 -2.36387,2.591057 -4.660697,2.591057 -2.296824,0 -4.213301,-1.111864 -4.660699,-2.591057 z m -3.545519,6.677113 c -4.719484,0.539636 -8.418089,4.569565 -8.418089,9.427331 v 3.241662 c 0,0.48051 0.353777,1.03922 0.792715,1.234551 1.701255,0.756909 6.341901,2.30632 15.824356,2.30632 9.482376,0 14.122588,-1.549411 15.823843,-2.30632 0.438938,-0.195331 0.792715,-0.753605 0.792715,-1.234033 v -3.24218 c 0,-4.857766 -3.698846,-8.887695 -8.418092,-9.427331 -0.143385,-0.01644 -0.355941,0.04505 -0.472839,0.129706 -2.176018,1.575343 -4.839772,2.515611 -7.725627,2.515611 -2.885773,0 -5.550122,-0.940268 -7.726143,-2.515611 -0.116895,-0.08466 -0.329451,-0.146148 -0.472839,-0.129706 z" />
      <path
         style="fill:#ff2100;stroke:#ff2100;stroke-width:0.264583px;stroke-linecap:butt;stroke-linejoin:miter;stroke-opacity:1;fill-opacity:1"
         d="M 58.728051,27.92299 66.311196,17.859375"
         id="path939"
         sodipodi:nodetypes="cc" />
      <text
         xml:space="preserve"
         style="font-size:7.7611px;line-height:1.25;font-family:sans-serif;fill:#ff2100;fill-opacity:1;stroke:#ff2100;stroke-width:0.264583;stroke-opacity:1"
         x="55.70042"
         y="16.844814"
         id="text943"><tspan
           sodipodi:role="line"
           id="tspan941"
           x="55.70042"
           y="16.844814"
           style="fill:#ff2100;fill-opacity:1;stroke:#ff2100;stroke-width:0.264583;stroke-opacity:1" /></text>
    </g>
  </g>
</svg>
